<svg width="405" height="82" viewBox="0 0 405 82" fill="none" xmlns="http://www.w3.org/2000/svg">
<g clip-path="url(#clip0_0_3)">
<path d="M34.398 64.888C37.534 66.168 40.862 66.872 44.318 66.872C47.774 66.872 51.166 66.168 54.302 64.888C57.374 63.544 60.062 61.752 62.43 59.384C64.798 57.016 66.654 54.264 67.934 51.256C69.278 48.056 69.918 44.728 69.918 41.272C69.918 37.816 69.278 34.488 67.934 31.288C66.654 28.28 64.798 25.528 62.43 23.16C60.062 20.856 57.374 19 54.302 17.72C51.166 16.376 47.774 15.672 44.318 15.672C40.862 15.672 37.534 16.376 34.398 17.72C31.326 19 28.574 20.856 26.27 23.16C23.902 25.528 22.046 28.28 20.766 31.288C19.422 34.488 18.782 37.816 18.782 41.272C18.782 44.728 19.422 48.056 20.766 51.256C22.046 54.264 23.902 57.016 26.27 59.384C28.574 61.752 31.326 63.544 34.398 64.888ZM32.99 29.944C35.998 26.872 40.03 25.208 44.318 25.208C48.606 25.208 52.638 26.872 55.71 29.944C58.718 32.952 60.382 36.984 60.382 41.272C60.382 45.56 58.718 49.592 55.71 52.664C52.638 55.672 48.606 57.336 44.318 57.336C40.03 57.336 35.998 55.672 32.99 52.664C29.918 49.592 28.254 45.56 28.254 41.272C28.254 36.984 29.918 32.952 32.99 29.944ZM100.943 67.256L124.943 15.672H115.471L100.943 45.816L86.6705 15.672H77.0065L98.7665 62.52L100.943 67.256ZM133.635 58.808H156.867L160.899 67H170.499L150.083 24.44L149.891 23.992L145.283 14.392L140.739 23.928L140.227 25.016L120.067 67H129.667L133.635 58.808ZM145.091 34.872L152.515 49.912H137.859L145.091 34.872ZM190.405 67.064H200.517C203.973 67.064 207.301 66.36 210.437 65.08C213.509 63.736 216.261 61.944 218.629 59.576C220.933 57.208 222.789 54.456 224.069 51.448C225.413 48.312 226.117 44.92 226.117 41.464C226.117 38.008 225.413 34.68 224.069 31.48C222.789 28.472 220.933 25.72 218.629 23.352C216.261 21.048 213.509 19.192 210.437 17.912C207.301 16.568 203.973 15.864 200.517 15.864H190.405H181.189V67.064H190.405ZM190.405 25.08H200.517C204.869 25.08 208.965 26.808 212.101 29.88C215.173 33.016 216.901 37.112 216.901 41.464C216.901 45.88 215.173 49.976 212.101 53.048C208.965 56.12 204.869 57.848 200.517 57.848H190.405V25.08ZM246.885 58.808H270.117L274.149 67H283.749L263.333 24.44L263.141 23.992L258.533 14.392L253.989 23.928L253.477 25.016L233.317 67H242.917L246.885 58.808ZM258.341 34.872L265.765 49.912H251.109L258.341 34.872ZM329.383 20.728C327.783 19.192 325.927 18.04 323.879 17.144C321.703 16.312 319.463 15.864 317.223 15.864H295.591V67H304.807V49.848H313.511L325.543 67H336.679L324.007 48.504C325.991 47.672 327.783 46.456 329.383 44.984C331.047 43.448 332.327 41.592 333.287 39.608C334.247 37.496 334.759 35.192 334.759 32.888C334.759 30.52 334.247 28.28 333.287 26.104C332.327 24.12 331.047 22.328 329.383 20.728ZM323.047 38.264C321.447 39.736 319.335 40.632 317.223 40.632H304.807V25.144H317.223C317.927 25.144 318.631 25.208 319.335 25.4C319.527 25.464 319.655 25.464 319.783 25.528C319.847 25.528 319.847 25.592 319.911 25.592C321.062 25.976 322.151 26.616 323.047 27.512C324.007 28.408 324.711 29.496 325.159 30.712C325.159 30.712 325.159 30.776 325.222 30.84C325.222 30.968 325.287 31.096 325.287 31.224C325.415 31.736 325.479 32.312 325.479 32.888C325.479 34.872 324.647 36.792 323.047 38.264ZM356.927 66.936H383.871V57.72H356.927V45.752H379.711V36.536H356.927V25.208H383.871V15.992H356.927H347.711V66.936H356.927Z" fill="black"/>
</g>
<defs>
<clipPath id="clip0_0_3">
<rect width="405" height="82" fill="white"/>
</clipPath>
</defs>
</svg>
